HIERARCHY
ROOT Hips
{
  OFFSET 267.745 86.9975 -272.335
  CHANNELS 6 Xposition Yposition Zposition Zrotation Xrotation Yrotation
  JOINT LeftUpLeg
  {
    OFFSET 8.64259 1.95398 -2.38835
    CHANNELS 3 Zrotation Xrotation Yrotation
    JOINT LeftLeg
    {
      OFFSET 43.7702 0 0
      CHANNELS 3 Zrotation Xrotation Yrotation
      JOINT LeftFoot
      {
        OFFSET 40.6238 0 0
        CHANNELS 3 Zrotation Xrotation Yrotation
        JOINT LeftToeBase
        {
          OFFSET 12.7242 0 0
          CHANNELS 3 Zrotation Xrotation Yrotation
          End Site
          {
            OFFSET 0 0 0
          }
        }
      }
    }
  }
  JOINT RightUpLeg
  {
    OFFSET -8.2249 1.95398 -2.59336
    CHANNELS 3 Zrotation Xrotation Yrotation
    JOINT RightLeg
    {
      OFFSET 43.5653 0 0
      CHANNELS 3 Zrotation Xrotation Yrotation
      JOINT RightFoot
      {
        OFFSET 40.6238 0 0
        CHANNELS 3 Zrotation Xrotation Yrotation
        JOINT RightToeBase
        {
          OFFSET 12.7242 0 0
          CHANNELS 3 Zrotation Xrotation Yrotation
          End Site
          {
            OFFSET 0 0 0
          }
        }
      }
    }
  }
  JOINT Spine
  {
    OFFSET 0.165834 0.87714 6.61349
    CHANNELS 3 Zrotation Xrotation Yrotation
    JOINT Spine1
    {
      OFFSET 7.38963 1.71661e-005 0
      CHANNELS 3 Zrotation Xrotation Yrotation
      JOINT Spine2
      {
        OFFSET 11.9445 1.14441e-005 0
        CHANNELS 3 Zrotation Xrotation Yrotation
        JOINT Spine3
        {
          OFFSET 14.7254 4.19617e-005 0
          CHANNELS 3 Zrotation Xrotation Yrotation
          JOINT Spine4
          {
            OFFSET 10.9679 0 0
            CHANNELS 3 Zrotation Xrotation Yrotation
            JOINT RightShoulder
            {
              OFFSET 2.46616 -1.6653 3.69651
              CHANNELS 3 Zrotation Xrotation Yrotation
              JOINT RightArm
              {
                OFFSET 13.0012 0 0
                CHANNELS 3 Zrotation Xrotation Yrotation
                JOINT RightForeArm
                {
                  OFFSET 28.7848 1.52588e-005 0
                  CHANNELS 3 Zrotation Xrotation Yrotation
                  JOINT RightHand
                  {
                    OFFSET 26.5688 1.52588e-005 0
                    CHANNELS 3 Zrotation Xrotation Yrotation
                    End Site
                    {
                      OFFSET 0 0 0
                    }
                  }
                }
              }
            }
            JOINT LeftShoulder
            {
              OFFSET 2.38034 -1.29275 -3.7523
              CHANNELS 3 Zrotation Xrotation Yrotation
              JOINT LeftArm
              {
                OFFSET 16.3182 6.10352e-005 0
                CHANNELS 3 Zrotation Xrotation Yrotation
                JOINT LeftForeArm
                {
                  OFFSET 27.0901 0 0
                  CHANNELS 3 Zrotation Xrotation Yrotation
                  JOINT LeftHand
                  {
                    OFFSET 24.5451 1.52588e-005 0
                    CHANNELS 3 Zrotation Xrotation Yrotation
                    End Site
                    {
                      OFFSET 0 0 0
                    }
                  }
                }
              }
            }
            JOINT Neck
            {
              OFFSET 5.0226 -0.0266342 0
              CHANNELS 3 Zrotation Xrotation Yrotation
              JOINT Head
              {
                OFFSET 6.69364 2.86102e-005 0
                CHANNELS 3 Zrotation Xrotation Yrotation
                End Site
                {
                  OFFSET 0 0 0
                }
              }
            }
          }
        }
      }
    }
  }
}
MOTION
Frames:	15
Frame Time:	0.0416667
-298.578 77.1022 292.82 99.8393 36.3279 75.8571 -175.186 -12.4006 78.0155 -42.7977 17.0039 1.54315 112.966 24.441 20.6285 -4.51441 0.274132 8.61741 134.793 -13.0032 22.4256 93.5792 -5.79804 90.505 -39.8078 43.5873 14.2645 96.6506 -7.24256 19.0152 0.184659 3.77263 -89.4164 19.3246 0.67303 1.04974 7.65341 0.718572 1.01911 -14.8788 0.326455 1.20347 5.13387 0.32645 1.20346 118.105 -19.9761 -44.1673 92.0083 -54.1012 52.4541 146.194 3.79686 -118.692 1.00258 -0.62027 -45.2358 -64.4083 -18.0571 128.414 -9.47095 -44.6109 38.7199 3.68763 86.5376 0.00100033 17.3891 1.83811 6.66912 -73.4232 -3.07334 7.45315 10.4239 -0.618464 -9.68519 
-298.893 76.968 293.168 99.8615 36.3998 75.7779 -175.223 -11.8908 77.9221 -43.5965 17.0146 1.61379 114.019 25.4249 20.6267 -6.44954 0.656574 7.95548 134.899 -13.4629 21.7927 93.0303 -5.59517 90.4386 -39.2173 43.7774 13.7797 96.5511 -6.99558 19.4427 0.177988 3.77968 -89.4275 19.3106 0.653884 1.031 7.63947 0.698626 1.00122 -14.8928 0.313817 1.17984 5.11984 0.313812 1.17983 118.063 -19.8527 -44.1777 92.1274 -54.2423 52.6137 145.875 3.73859 -118.58 1.05271 -0.636054 -45.0815 -64.2868 -18.323 128.543 -9.31722 -44.2038 38.8346 3.47504 86.3091 0.000938497 17.0165 1.7952 6.63519 -73.3178 -3.12923 7.54547 10.3491 -0.628336 -9.70325 
-299.788 76.6088 294.154 99.9254 36.607 75.5497 -175.312 -10.3562 77.6706 -45.9837 16.9611 1.81674 117.009 27.9875 20.458 -11.5446 1.87726 6.0561 135.209 -14.8318 20.0609 91.4918 -5.14302 90.2767 -37.264 44.4198 12.2343 96.125 -6.26026 20.7069 0.158512 3.8002 -89.4595 19.2699 0.598744 0.977585 7.59875 0.641205 0.950272 -14.9338 0.277278 1.11232 5.07887 0.277276 1.11232 117.948 -19.5085 -44.2032 92.4475 -54.6478 53.0598 144.968 3.57338 -118.271 1.21433 -0.686737 -44.6297 -63.9338 -19.0881 128.914 -8.90534 -43.0458 39.1493 2.87922 85.632 0.000793222 15.9556 1.67493 6.54149 -73.0115 -3.29054 7.81314 10.1368 -0.658725 -9.76076 
-301.188 76.1095 295.693 100.026 36.9353 75.1874 -175.44 -7.88311 77.2839 -49.6991 16.6895 2.14045 121.483 31.3176 19.8424 -18.3729 4.0937 3.14441 135.681 -17.1336 17.5648 89.2502 -4.80238 90.0802 -33.3548 45.8214 9.30391 94.9639 -4.97042 22.9384 0.127401 3.83331 -89.51 19.2046 0.510546 0.893108 7.53343 0.549357 0.86976 -14.9995 0.218547 1.00525 5.01317 0.218544 1.00524 117.777 -18.984 -44.2339 92.9051 -55.2905 53.7394 143.55 3.31793 -117.813 1.52534 -0.783 -43.8885 -63.3636 -20.3028 129.506 -8.31332 -41.2511 39.629 1.98577 84.5112 0.000631601 14.3007 1.49256 6.4024 -72.5194 -3.55109 8.25048 9.80595 -0.711541 -9.86659 
-303.019 75.5578 297.698 100.159 37.3697 74.7054 -175.593 -4.57779 76.7626 -54.4535 16.0925 2.57343 126.907 34.6252 18.6601 -25.4859 7.30459 -0.389315 136.185 -20.3786 14.6706 86.7851 -4.99719 89.8627 -26.2458 48.6735 4.12869 92.2119 -2.88493 26.7785 0.0852001 3.8773 -89.5775 19.1173 0.391594 0.780358 7.44621 0.42557 0.762366 -15.0872 0.13897 0.861967 4.92548 0.138968 0.861974 117.565 -18.3174 -44.2611 93.4331 -56.1446 54.5978 141.697 2.98934 -117.258 2.0446 -0.939016 -42.8602 -62.5854 -21.919 130.299 -7.60978 -38.9549 40.2565 0.902107 82.955 0.000492575 12.1548 1.265 6.23518 -71.856 -3.90744 8.86042 9.37459 -0.78887 -10.0323 
-305.248 74.853 300.146 100.319 37.8952 74.1173 -175.688 -0.300166 76.0961 -60.5015 15.0665 3.1025 133.054 37.3836 16.9387 -31.8495 11.2559 -4.13997 136.463 -24.5203 11.4437 84.3519 -5.73113 89.5772 -12.1813 53.9507 -6.86999 85.8337 0.671368 34.3572 0.0324581 3.93097 -89.6604 19.0108 0.243971 0.641791 7.33976 0.271978 0.630419 -15.1941 0.0398023 0.685443 4.8185 0.0398159 0.685438 117.326 -17.5441 -44.277 93.9659 -57.1859 55.5809 139.484 2.6024 -116.655 2.84112 -1.16747 -41.5502 -61.6041 -23.8904 131.276 -6.84959 -36.3092 41.0268 -0.290849 80.9883 0.0364059 9.62876 1.0088 6.05956 -71.0338 -4.35594 9.64877 8.85943 -0.891942 -10.2693 
-307.806 73.8228 302.959 100.502 38.4968 73.4362 -175.647 5.07028 75.4818 -67.9127 13.5356 3.71263 139.715 39.3073 14.8565 -36.9451 15.5521 -7.82332 136.029 -29.5613 7.43288 73.5634 -6.74223 88.2059 26.581 51.4115 -36.2251 65.0806 -0.561315 54.8111 -0.0299491 3.99277 -89.7572 18.8879 0.0700435 0.480019 7.21689 0.0911159 0.476464 -15.3176 -0.077469 0.478877 4.69509 -0.0774429 0.478878 117.071 -16.698 -44.2751 94.4351 -58.39 56.6285 136.991 2.16892 -116.047 3.98779 -1.47573 -39.972 -60.4241 -26.1685 132.422 -6.07739 -33.4795 41.9364 -1.44832 78.6581 0.0806083 6.84406 0.739376 5.89836 -70.0647 -4.8901 10.6192 8.27619 -1.02077 -10.5873 
-313.613 68.4611 309.388 100.705 39.1591 72.6762 -173.59 18.4258 73.0746 -86.5262 10.2535 4.3752 149.094 39.4227 12.3269 -40.6742 19.8072 -11.2931 129.773 -37.4152 -7.55632 82.7835 -2.65744 89.8478 109.608 18.6033 -133.968 0.742337 -23.803 98.1417 -0.1009 4.06143 -89.8657 18.7512 -0.126794 0.298352 7.0802 -0.113533 0.303634 -15.4548 -0.210584 0.246457 4.55785 -0.210602 0.246451 116.815 -15.8128 -44.2491 94.764 -59.7296 57.6671 134.315 1.69611 -115.471 5.55241 -1.86114 -38.1498 -59.0518 -28.7011 133.718 -5.33257 -30.636 42.9712 5.57502 76.0698 -8.14851 3.93161 0.469806 5.77759 -68.9606 -5.49831 11.7684 7.64032 -1.17416 -10.9927 
-321.029 63.0793 317.784 100.924 39.8679 71.8514 -170.74 34.6539 70.7755 -102.024 8.33549 5.10715 150.756 38.4472 13.0027 -43.1881 23.7506 -14.4999 172.47 -16.187 37.2348 -94.9803 -14.8949 22.4728 -133.611 73.8043 -132.801 -111.005 4.05752 25.9673 -0.178629 4.13566 -89.9835 18.6028 -0.341685 0.101025 6.93193 -0.33692 0.115965 -15.6036 -0.356268 -0.00633191 4.40905 -0.356254 -0.00633589 116.568 -14.9208 -44.1929 94.8671 -61.1727 58.607 131.567 1.18542 -114.951 7.58 -2.307 -36.1157 -57.4968 -31.4351 135.144 -4.65175 -27.9316 44.101 13.5237 72.9685 -17.3384 1.01882 0.209053 5.72432 -67.7332 -6.16291 13.0808 6.96685 -1.35049 -11.4875 
-321.375 66.0922 317.694 101.156 40.6098 70.9754 -171.963 32.7339 69.6951 -98.6137 7.54228 5.9041 151.39 39.2168 12.9758 -44.727 27.2385 -17.4292 157.442 -14.7761 61.1801 -71.2193 34.925 -23.6403 -171.242 -10.4896 168.496 29.8785 1.91244 -99.3061 -0.260814 4.21464 -90.1071 18.4446 -0.568216 -0.106783 6.7738 -0.572355 -0.0816791 -15.7622 -0.509849 -0.272615 4.25048 -0.509843 -0.272631 116.34 -14.0517 -44.1006 94.6506 -62.6813 59.3424 128.876 0.631973 -114.5 10.0765 -2.78209 -33.9015 -55.7717 -34.321 136.676 -4.06794 -25.4828 45.2794 18.6507 69.5389 -23.6125 -1.78402 -0.0384079 5.76375 -66.3953 -6.86125 14.5263 6.27047 -1.54846 -12.069 
-322.824 66.9556 319.522 101.4 41.3725 70.0623 -172.55 34.7457 68.3145 -99.2193 6.37625 6.73405 151.508 38.7848 13.738 -45.5395 30.2144 -20.0689 153.462 -23.8879 59.1361 16.2978 67.7273 -88.4654 113.66 2.21807 158.51 78.7815 -23.7585 -17.3489 -0.344271 4.29763 -90.2328 18.2779 -0.798074 -0.318771 6.60717 -0.811334 -0.283347 -15.9291 -0.665365 -0.543895 4.0835 -0.665375 -0.543902 116.142 -13.2336 -43.9674 94.0093 -64.2079 59.7477 126.383 0.0258324 -114.119 12.9954 -3.24022 -31.5316 -53.8944 -37.3132 138.286 -3.60914 -23.3668 46.4477 21.9973 65.9622 -28.0044 -4.38665 -0.271885 5.91794 -64.9629 -7.56637 16.0585 5.56679 -1.7678 -12.73 
-325.25 66.969 322.181 101.653 42.1448 69.1271 -172.16 38.7269 66.2706 -101.248 5.43775 7.59222 150.312 38.145 15.0818 -45.85 32.6745 -22.4021 148.827 -32.2315 53.7591 32.1746 69.2888 -91.3102 89.5081 -17.4751 155.859 61.4272 -6.44327 7.62766 -0.425081 4.38411 -90.3555 18.1038 -1.02108 -0.527186 6.43313 -1.0433 -0.481729 -16.1034 -0.815442 -0.809689 3.90924 -0.815453 -0.809706 115.983 -12.4945 -43.7906 92.8311 -65.6905 59.6809 124.239 -0.644635 -113.797 16.226 -3.62114 -29.0135 -51.89 -40.3715 139.938 -3.29676 -21.6207 47.5376 24.1351 62.3604 -31.088 -6.72057 -0.493066 6.20436 -63.4575 -8.24839 17.6119 4.87389 -2.00984 -13.4591 
-327.805 66.7318 324.884 101.914 42.9168 68.1849 -171.312 42.9114 63.8577 -103.076 4.76447 8.46491 148.188 37.3635 16.7588 -45.8426 34.6427 -24.4054 142.46 -39.5952 46.6889 45.5163 72.8219 -91.7868 77.8318 -28.3405 149.061 50.3592 -3.18008 20.2629 -0.498996 4.4737 -90.4701 17.923 -1.22594 -0.722992 6.25245 -1.25657 -0.668343 -16.2842 -0.951987 -1.05802 3.72849 -0.951977 -1.05802 115.871 -11.8626 -43.5716 91.0133 -67.0531 59.0032 122.578 -1.38452 -113.517 19.5979 -3.85752 -26.334 -49.7887 -43.465 141.592 -3.14044 -20.2433 48.4781 25.4254 58.8064 -33.2395 -8.74126 -0.704601 6.63366 -61.9061 -8.87745 19.1058 4.21243 -2.27737 -14.2426 
-330.234 66.4754 327.405 102.182 43.6802 67.2508 -170.203 46.715 61.2487 -104.184 4.38834 9.33773 145.346 36.479 18.6143 -45.6595 36.1505 -26.0495 133.333 -46.3688 37.017 53.8538 77.921 -85.6793 69.9521 -36.7551 140.645 41.5848 -2.41326 27.0313 -0.561828 4.56639 -90.5704 17.7359 -1.40138 -0.896536 6.06545 -1.43946 -0.833992 -16.4711 -1.06716 -1.27625 3.54153 -1.06717 -1.27626 115.812 -11.3673 -43.3179 88.4856 -68.2088 57.6059 121.502 -2.18365 -113.258 22.9056 -3.88572 -23.4665 -47.6229 -46.5722 143.21 -3.13565 -19.2038 49.2012 26.0961 55.3373 -34.7082 -10.4235 -0.908188 7.20933 -60.3395 -9.42767 20.4517 3.60557 -2.57432 -15.0662 
-332.363 66.325 329.552 102.457 44.4287 66.34 -169.002 49.7473 58.5989 -104.437 4.24228 10.1933 142.165 35.5587 20.463 -45.4057 37.2228 -27.3013 116.35 -52.8793 19.5636 68.9578 86.2394 -78.6889 64.5596 -47.5442 131.221 34.7574 -2.4935 30.5413 -0.609703 4.66231 -90.6509 17.5424 -1.53687 -1.03779 5.87203 -1.58105 -0.969143 -16.6644 -1.15396 -1.45169 3.34829 -1.15396 -1.45169 115.812 -11.0418 -43.0448 85.2417 -69.0616 55.4463 121.065 -3.00928 -113.003 25.9282 -3.65571 -20.3843 -45.4271 -49.6799 144.755 -3.26565 -18.4521 49.6428 26.2891 51.9672 -35.6612 -11.7534 -1.10343 7.92812 -58.7909 -9.87809 21.5584 3.0796 -2.90548 -15.9185 
